
<svg xmlns="http://www.w3.org/2000/svg" version="1.1" xmlns:xlink="http://www.w3.org/1999/xlink" preserveAspectRatio="none" x="0px" y="0px" width="600px" height="600px" viewBox="0 0 600 600">
<defs>
<g id="Symbol_12_0_Layer0_0_FILL">
<path fill="#FFFFFF" stroke="none" d="
M 76.45 95.05
Q 73.15 89.8 65.7 89.8 62.05 89.8 58.45 91.05 51.4 96.7 44.75 103.35 42.9 105.2 41.15 107.05 41 107.45 40.85 107.85 38 115.3 41.35 120.6 44.65 125.9 52.1 125.9 59.55 125.9 66.85 120.6 74.15 115.3 76.95 107.85 79.75 100.4 76.45 95.05
M 152.7 58.65
Q 115.85 58.65 85.3 73.85 81.7 75.65 78.15 77.65
L 141.6 150.6 207.75 68.45
Q 182.25 58.65 152.7 58.65
M 207.45 92.55
Q 214.75 84.65 221.8 84.65 228.8 84.65 231.35 92.55 233.9 100.5 230.5 111.7 227.05 122.9 219.7 130.85 214.6 136.3 211 139.35 207.35 142.4 211.4 147.25 215.45 152.1 224.55 146.7 233.6 141.35 240.05 124.65 247.3 105.8 242.55 90.9 241.75 88.35 240.7 86.3 237.25 83.8 233.75 81.55 231.75 80.25 229.7 79.05 227 77.45 224.3 76 211.3 76.25 197.7 90.9 184.4 105.2 180.8 122.4 177.15 139.55 180.25 157.3 183.35 175.05 195.65 190.3 207.95 205.5 212.95 213.2 217.85 220.75 222.5 232.15 227.1 243.5 226.55 261.95 225.95 280.4 219.95 287.95 210.6 264.1 188.3 247.6 188.15 247.5 188.1 247.4 177.7 238.9 172.9 233.75 178 226.7 181.6 219 185.2 211.35 187.55 199.95 189.85 188.45 184.45 179.75 178.9 171 170.95 173.9 162.85 176.8 156.95 190 151 203.15 152.45 217.75 153.65 229.65 158.35 237.45 147.65 254.15 135.9 256.75 124.15 259.4 122.15 251.3 121.65 249.3 121.3 247 136.3 234.8 140.7 219.55 145.1 204.3 140.8 195.35 136.5 186.4 128.1 189.55 119.6 192.6 113.45 206.1 107.2 219.65 107 235.7 106.75 251.75 112.75 260.6 118.6 269.4 133.7 266.25 148.8 263.1 163.35 244.05 167.75 249 176.05 255.4 181.9 259.9 183.9 262 201.95 281.05 200.65 303.4 200.5 306.35 199.2 315.3 199.15 315.85 199.05 316.4 199.1 315.9 199.15 315.35 193.05 318.85 186.25 318.85 171.75 318.85 162.5 302.9 162.35 302.6 162.2 302.4 153.45 283.75 168.8 261.25 150.8 262.85 137.6 276 122.65 290.95 122.65 312.1 122.65 333.25 137.6 348.2 146.55 357.1 157.65 360.75 161.2 361.9 165.1 362.5 167.5 362.9 170.05 363.1 178.7 362.15 187 360.35 188.3 360.1 189.55 359.75 193.1 358.95 196.55 357.95 197.1 357.65 197.6 357.35 204.15 353.85 209.8 348.2 217.95 340.05 221.65 330.1 229.9 325.75 236.85 318.25 253.35 300.7 252.2 272.3 251 244.45 237.8 226.1 227.8 212.3 215.65 198.8 194.1 172.35 192.9 139.7 192.35 123.65 198.45 106.6 201.8 98.6 207.45 92.55
M 170.8 181.45
Q 173.65 180.4 175.4 186.35 177.2 192.3 176.05 203.25 174.9 214.15 167.25 224.7 165.65 220.05 164.95 213.2 163.65 201.5 165.8 192 167.95 182.5 170.8 181.45
M 132.35 203.2
Q 133.7 210.2 132.05 219.55 130.4 228.85 120.65 241.5 120.25 236.55 120.3 230.55 120.45 217.9 122.75 208.15 125 198.4 128 197.3 131 196.15 132.35 203.2
M 142.9 310.65
Q 142.9 303.85 143 303.6 144.15 318.05 157.2 328.3 170.3 338.55 192.5 335.75 191.8 336.8 191.05 337.8 182.85 349.05 171.1 349.05 159.4 349.05 151.2 337.8 142.9 326.55 142.9 310.65
M 235.45 163.95
Q 230.05 176.5 229.8 191.4 229.6 206.3 234.75 214.75 239.85 223.1 247.2 220.1 253.7 217.45 258.6 207.3 258.95 207.85 259.3 208.45 264.35 216.45 272.1 216.45 278.2 216.45 281.75 211.6 285.5 206.55 280.7 207.8 279.35 208.1 277.5 208.1 271.2 208.1 267.15 201.4 263.15 194.65 265.05 182.2 267 169.7 262.7 168.3 262.05 168.15 261.5 168.1 259.5 167.8 257.95 167.85 264.35 165.75 263.8 163.05 262.75 158.55 260.45 154.7 255.45 146.2 248.15 148.85 240.75 151.55 235.45 163.95
M 252.4 162.75
Q 252.95 165.35 254 168.8 252.3 170 252.85 172.8 254.25 179.55 254.05 186.65 253.8 193.75 251.9 202.75 249.9 211.8 247.3 212.85 244.7 213.9 242.95 206.3 241.15 198.75 241.35 186.95 241.5 175.1 243.5 166.1 245.45 157.1 248.05 156.15 250.65 155.15 252.4 162.75
M 49.05 136.35
Q 30.55 149.35 29.15 195.6 27.7 241.8 37.25 281.1
L 37.95 284.4
Q 43 307.35 51.35 308.7 60.3 310.15 64.2 291.1 68.5 301.1 74.85 299.2 81.2 297.3 77.2 287 73.2 276.7 73.85 262.25 75.1 241.65 83.95 228.95 91.85 217.6 88.2 232.35 82.75 254.4 84.9 273.25 86.45 287 93.65 287.1 100.85 287.15 107.5 267 110.55 257.75 105.65 263.75 98.1 273.1 97.8 263.15 97.8 245.7 101.8 228.75 105.8 211.8 99.75 209.25 93.65 206.7 87.55 212 78.9 219.55 72.85 234.8 73.8 229.1 75.6 221.7 77.4 214.3 70.6 214.95 63.7 215.6 61.1 232.85 57.3 267.25 61.8 284.1 54 314.5 49.6 265.95 45.15 217.35 56.35 170.35 67.55 123.3 49.05 136.35 Z"/>

<path fill="#000000" stroke="none" d="
M 207.75 68.45
L 242.55 22.8 10.6 0 78.15 77.65
Q 81.7 75.65 85.3 73.85 115.85 58.65 152.7 58.65 182.25 58.65 207.75 68.45
M 143 303.6
Q 142.9 303.85 142.9 310.65 142.9 326.55 151.2 337.8 159.4 349.05 171.1 349.05 182.85 349.05 191.05 337.8 191.8 336.8 192.5 335.75 170.3 338.55 157.2 328.3 144.15 318.05 143 303.6
M 132.05 219.55
Q 133.7 210.2 132.35 203.2 131 196.15 128 197.3 125 198.4 122.75 208.15 120.45 217.9 120.3 230.55 120.25 236.55 120.65 241.5 130.4 228.85 132.05 219.55
M 175.4 186.35
Q 173.65 180.4 170.8 181.45 167.95 182.5 165.8 192 163.65 201.5 164.95 213.2 165.65 220.05 167.25 224.7 174.9 214.15 176.05 203.25 177.2 192.3 175.4 186.35
M 221.8 84.65
Q 214.75 84.65 207.45 92.55 201.8 98.6 198.45 106.6 192.35 123.65 192.9 139.7 194.1 172.35 215.65 198.8 227.8 212.3 237.8 226.1 251 244.45 252.2 272.3 253.35 300.7 236.85 318.25 229.9 325.75 221.65 330.1 217.95 340.05 209.8 348.2 204.15 353.85 197.6 357.35 197.1 357.65 196.55 357.95 232.3 347.55 260.6 319.2 305.3 274.5 305.3 211.3 305.3 148.05 260.6 103.35 251.1 93.8 240.7 86.3 241.75 88.35 242.55 90.9 247.3 105.8 240.05 124.65 233.6 141.35 224.55 146.7 215.45 152.1 211.4 147.25 207.35 142.4 211 139.35 214.6 136.3 219.7 130.85 227.05 122.9 230.5 111.7 233.9 100.5 231.35 92.55 228.8 84.65 221.8 84.65
M 229.8 191.4
Q 230.05 176.5 235.45 163.95 240.75 151.55 248.15 148.85 255.45 146.2 260.45 154.7 262.75 158.55 263.8 163.05 264.35 165.75 257.95 167.85 259.5 167.8 261.5 168.1 262.05 168.15 262.7 168.3 267 169.7 265.05 182.2 263.15 194.65 267.15 201.4 271.2 208.1 277.5 208.1 279.35 208.1 280.7 207.8 285.5 206.55 281.75 211.6 278.2 216.45 272.1 216.45 264.35 216.45 259.3 208.45 258.95 207.85 258.6 207.3 253.7 217.45 247.2 220.1 239.85 223.1 234.75 214.75 229.6 206.3 229.8 191.4
M 254 168.8
Q 252.95 165.35 252.4 162.75 250.65 155.15 248.05 156.15 245.45 157.1 243.5 166.1 241.5 175.1 241.35 186.95 241.15 198.75 242.95 206.3 244.7 213.9 247.3 212.85 249.9 211.8 251.9 202.75 253.8 193.75 254.05 186.65 254.25 179.55 252.85 172.8 252.3 170 254 168.8
M 214.6 71.25
Q 211.2 69.75 207.75 68.45
L 141.6 150.6 78.15 77.65
Q 67.95 83.45 58.45 91.05 62.05 89.8 65.7 89.8 73.15 89.8 76.45 95.05 79.75 100.4 76.95 107.85 74.15 115.3 66.85 120.6 59.55 125.9 52.1 125.9 44.65 125.9 41.35 120.6 38 115.3 40.85 107.85 41 107.45 41.15 107.05 0 150.65 0 211.3 0 269.05 37.35 311.35 40.9 315.35 44.75 319.2 87.05 361.5 145.9 363.8 149.3 363.95 152.7 363.95 155.8 363.95 158.9 363.85 164.5 363.65 170.05 363.1 167.5 362.9 165.1 362.5 161.2 361.9 157.65 360.75 146.55 357.1 137.6 348.2 122.65 333.25 122.65 312.1 122.65 290.95 137.6 276 150.8 262.85 168.8 261.25 153.45 283.75 162.2 302.4 162.35 302.6 162.5 302.9 171.75 318.85 186.25 318.85 193.05 318.85 199.15 315.35 199.15 315.3 199.2 315.3 200.5 306.35 200.65 303.4 201.95 281.05 183.9 262 181.9 259.9 176.05 255.4 167.75 249 163.35 244.05 148.8 263.1 133.7 266.25 118.6 269.4 112.75 260.6 106.75 251.75 107 235.7 107.2 219.65 113.45 206.1 119.6 192.6 128.1 189.55 136.5 186.4 140.8 195.35 145.1 204.3 140.7 219.55 136.3 234.8 121.3 247 121.65 249.3 122.15 251.3 124.15 259.4 135.9 256.75 147.65 254.15 158.35 237.45 153.65 229.65 152.45 217.75 151 203.15 156.95 190 162.85 176.8 170.95 173.9 178.9 171 184.45 179.75 189.85 188.45 187.55 199.95 185.2 211.35 181.6 219 178 226.7 172.9 233.75 177.7 238.9 188.1 247.4 188.15 247.5 188.3 247.6 210.6 264.1 219.95 287.95 225.95 280.4 226.55 261.95 227.1 243.5 222.5 232.15 217.85 220.75 212.95 213.2 207.95 205.5 195.65 190.3 183.35 175.05 180.25 157.3 177.15 139.55 180.8 122.4 184.4 105.2 197.7 90.9 211.3 76.25 224.3 76 222.4 75 220.5 74.05 217.55 72.6 214.6 71.25
M 29.15 195.6
Q 30.55 149.35 49.05 136.35 67.55 123.3 56.35 170.35 45.15 217.35 49.6 265.95 54 314.5 61.8 284.1 57.3 267.25 61.1 232.85 63.7 215.6 70.6 214.95 77.4 214.3 75.6 221.7 73.8 229.1 72.85 234.8 78.9 219.55 87.55 212 93.65 206.7 99.75 209.25 105.8 211.8 101.8 228.75 97.8 245.7 97.8 263.15 98.1 273.1 105.65 263.75 110.55 257.75 107.5 267 100.85 287.15 93.65 287.1 86.45 287 84.9 273.25 82.75 254.4 88.2 232.35 91.85 217.6 83.95 228.95 75.1 241.65 73.85 262.25 73.2 276.7 77.2 287 81.2 297.3 74.85 299.2 68.5 301.1 64.2 291.1 60.3 310.15 51.35 308.7 43 307.35 37.95 284.4
L 37.25 281.1
Q 27.7 241.8 29.15 195.6 Z"/>
</g>

<g id="Symbol_6_0_Layer0_0_FILL">
<path fill="#000000" stroke="none" d="
M 25.3 5.75
Q 22.6 3.5 20.3 2.6 18.6 1.9 16.5 1.35 14.2 0.8 11.55 0.45 9 0.1 5.3 0.05
L 0.05 0
Q 0.25 10.8 0.25 11.75
L 0.25 17.35
Q 0.15 26.8 0.1 30.3 0.05 31.35 0 31.85 0.55 31.85 1.15 31.85 2.6 31.75 4.15 31.55 6.4 31.25 8.7 30.7 11.15 30.1 13.4 29.25 15.8 28.35 17.9 27.2 20.1 25.9 21.9 24.45 23.8 22.85 25.1 21 26.55 19.1 27.25 16.9 28.05 14.6 28.05 12 28.05 10.55 27.55 9.15 26.85 7.25 25.3 5.75
M 20.6 7.05
Q 21.6 7.85 22.3 8.75 22.95 9.7 23.3 10.8 23.65 11.95 23.65 13.2 23.65 14.4 23.3 15.55 23 16.8 22.35 18 21.7 19.2 20.8 20.35 19.8 21.5 18.6 22.5 17.3 23.55 15.9 24.4 14.3 25.3 12.55 26 10.7 26.7 8.7 27.2 6.6 27.7 4.3 27.85
L 4.3 3.4
Q 7.2 3.35 12.25 3.9 14.6 4.25 18.35 5.65 19.65 6.25 20.6 7.05
M 36.85 6.9
L 32.3 6.9 32.5 24.65
Q 32.5 27.6 32 29.85 31.55 32 30.6 33.65 29.75 35.15 28.45 36.35 27.2 37.35 25.55 38.1
L 27.65 41.4
Q 29.5 40.5 30.95 39.3 32.65 37.9 33.85 35.95 35.15 33.9 35.85 31.2 36.3 29.4 36.6 24.75
L 36.6 17.7
Q 36.6 8.95 36.85 6.9 Z"/>
</g>

<g id="Symbol_7_0_Layer0_0_FILL">
<path fill="#FFFFFF" stroke="none" d="
M 8.5 2.8
L 7.9 0.65
Q 6.45 1 5.05 1.6 3.65 2.3 2.5 3.15 1.35 4.05 0.65 5 0 6.05 0 7.15 0 7.85 0.25 8.5 0.55 9.1 1.1 9.6 1.6 10.1 2.35 10.6
L 3.95 11.55
Q 5.55 12.45 6.15 13.05 6.85 13.75 6.85 14.75 6.85 15.55 6.3 16.3 5.75 16.9 4.8 17.5 3.95 18 2.8 18.35
L 0.65 18.95 1.4 21.05
Q 3.35 20.55 4.95 19.8 6.45 19.05 7.5 18.1 8.55 17.2 9.05 16.15 9.6 15.15 9.6 14.1 9.6 13.3 9.35 12.65 9.05 12.05 8.5 11.55 7.9 10.95 5.8 9.7 4.05 8.65 3.8 8.45 3.3 8.1 3 7.65 2.7 7.15 2.7 6.65 2.7 5.85 3.35 5.15 3.95 4.5 4.95 3.95 6.2 3.3 8.5 2.8
M 28.5 1.05
Q 27.7 1.2 24.35 1.3
L 18.3 1.35
Q 11.45 1.3 10.3 1.05
L 10.3 3.4
Q 14.95 3.15 18.15 3.15
L 18.15 7.3
Q 18.15 11.7 18 20.5
L 21 20.5
Q 20.65 13.4 20.65 7.75
L 20.65 3.15
Q 23 3.15 28.5 3.4
L 28.5 1.05
M 46.2 19.45
Q 43.15 14.2 40.95 10.2 38.75 6.25 35.3 0.15
L 35.25 0.15
Q 26.6 16.95 25.05 19.6
L 27.3 21.05
Q 27.8 20.1 30.4 14.2
L 40.05 13.8
Q 40.1 13.95 43.85 21.05
L 46.2 19.45
M 35.2 4.55
L 39.2 12.05 31.35 12.4
Q 31.6 11.95 35.2 4.55
M 68.1 1.1
L 65.55 0.95 65.35 15.75 50.25 0 50.15 0 49.15 20.5 51.75 20.7 51.95 5.25
Q 66.55 20.35 67.3 21.1
L 67.35 21.1
Q 67.45 14.15 68.1 1.1
M 87.4 11.45
Q 87.85 10.05 87.85 8.5 87.85 7.6 87.55 6.75 87.1 5.55 86.15 4.65 84.45 3.25 83.1 2.7 82 2.25 80.75 1.95 79.3 1.6 77.7 1.35 76.1 1.2 73.85 1.1
L 70.6 1.1
Q 70.75 7.75 70.75 8.35
L 70.75 11.75
Q 70.7 19.4 70.55 20.65 71.8 20.65 73.15 20.5 74.55 20.35 75.95 19.95 77.45 19.6 78.8 19.1 80.3 18.5 81.6 17.8 82.95 17 84.05 16.15 85.2 15.15 86.05 14 86.9 12.8 87.4 11.45
M 81.9 4.55
Q 82.65 4.95 83.25 5.4 83.85 5.9 84.25 6.5 84.7 7.05 84.9 7.75 85.1 8.45 85.1 9.2 85.1 9.95 84.95 10.7 84.75 11.45 84.35 12.15 83.95 12.9 83.35 13.6 82.75 14.3 82 14.9 81.25 15.55 80.35 16.1 79.4 16.65 78.3 17.1 77.2 17.5 75.95 17.8 74.65 18.1 73.25 18.25
L 73.25 3.2
Q 75.05 3.15 78.15 3.5 79.55 3.7 81.9 4.55
M 113.45 6.75
L 113.4 0.85 110.8 0.85
Q 110.95 3.9 110.95 5.4
L 110.95 6.4
Q 110.95 10.5 110.8 12.1 110.65 13.45 110.4 14.4 110.05 15.45 109.6 16.2 108.85 17.4 107.7 18.05 107.1 18.4 106.4 18.6 105.6 18.85 104.75 18.85 104 18.85 103.35 18.7 102.6 18.5 102 18.2 101.4 17.85 100.9 17.35 100.35 16.85 100 16.15 99.55 15.4 99.3 14.65
L 98.9 12.9
Q 98.7 11.55 98.7 7.65
L 98.7 5.8
Q 98.7 3.05 98.8 1.25
L 96.2 1.25 96.15 6.65
Q 96.3 12.3 96.55 13.95 96.8 15.1 97.1 16.05 97.4 16.85 97.95 17.65 98.65 18.75 99.55 19.5 100.35 20.1 101.3 20.45 102.5 20.95 104.4 20.95 105.5 20.95 106.45 20.8 107.4 20.6 108.2 20.25 109.05 19.9 109.75 19.35 110.45 18.75 111.05 18 111.8 17.1 112.3 15.9 112.8 14.8 113.05 13.4 113.4 11.6 113.45 6.75
M 124.15 2.15
Q 123 1.7 121.6 1.45 117.55 1.1 116.4 1.1
L 116.35 20.5 118.95 20.5 118.9 14.75
Q 120.85 14.3 122.5 13.55 124.1 12.85 125.25 11.8 126.45 10.75 127.05 9.5 127.7 8.2 127.7 6.8 127.7 5.7 127.25 4.8 126.85 3.95 126 3.25 125.25 2.6 124.15 2.15
M 124.5 9.25
Q 124.1 10.15 123.25 10.85 122.45 11.55 121.3 12.05 120.25 12.5 118.9 12.8
L 118.9 3.15
Q 124.5 3.25 125 7.2 125 8.35 124.5 9.25 Z"/>
</g>
</defs>

<g transform="matrix( 1.4896697998046875, 0, 0, 1.4896697998046875, 72.55,28.95) ">
<g transform="matrix( 1, 0, 0, 1, 0,0) ">
<use xlink:href="#Symbol_12_0_Layer0_0_FILL"/>
</g>

<g transform="matrix( 1.2955169677734375, 0, 0, 1.2955169677734375, 116.05,68.85) ">
<g transform="matrix( 1, 0, 0, 1, 0,0) ">
<use xlink:href="#Symbol_6_0_Layer0_0_FILL"/>
</g>
</g>

<g transform="matrix( 1.185791015625, 0, 0, 1.185791015625, 64.6,25.05) ">
<g transform="matrix( 1, 0, 0, 1, 0,0) ">
<use xlink:href="#Symbol_7_0_Layer0_0_FILL"/>
</g>
</g>
</g>
</svg>
